<svg xmlns="http://www.w3.org/2000/svg" width="1200" height="720" viewBox="0 0 1200 720">
<rect width="100%" height="100%" fill="#F8FBFF" />
<text x="90" y="34" font-size="28" font-weight="700" fill="#102A43">Atlantic salmon growth by temperature</text>
<text x="90" y="78" font-size="16" fill="#486581">
Python port of the Stata model using a calibrated bell-shaped SGR response and daily Euler integration.</text>
<line x1="108" y1="52" x2="134" y2="52" stroke="#1D3557" stroke-width="2.5" />
<text x="144" y="57" font-size="14" fill="#102A43">4C</text>
<line x1="268" y1="52" x2="294" y2="52" stroke="#2A6F97" stroke-width="2.5" />
<text x="304" y="57" font-size="14" fill="#102A43">6C</text>
<line x1="428" y1="52" x2="454" y2="52" stroke="#2D6A4F" stroke-width="2.5" />
<text x="464" y="57" font-size="14" fill="#102A43">8C</text>
<line x1="108" y1="76" x2="134" y2="76" stroke="#40916C" stroke-width="2.5" />
<text x="144" y="81" font-size="14" fill="#102A43">10C</text>
<line x1="268" y1="76" x2="294" y2="76" stroke="#74C69D" stroke-width="2.5" />
<text x="304" y="81" font-size="14" fill="#102A43">12C</text>
<line x1="428" y1="76" x2="454" y2="76" stroke="#F4A261" stroke-width="4.5" />
<text x="464" y="81" font-size="14" fill="#102A43">14C</text>
<line x1="108" y1="100" x2="134" y2="100" stroke="#E76F51" stroke-width="2.5" />
<text x="144" y="105" font-size="14" fill="#102A43">16C</text>
<line x1="268" y1="100" x2="294" y2="100" stroke="#B56576" stroke-width="2.5" />
<text x="304" y="105" font-size="14" fill="#102A43">18C</text>
<line x1="428" y1="100" x2="454" y2="100" stroke="#7F5539" stroke-width="2.5" />
<text x="464" y="105" font-size="14" fill="#102A43">20C</text>
<line x1="90.00" y1="100" x2="90.00" y2="640" stroke="#D9E2EC" stroke-width="1" />
<text x="90.00" y="668" text-anchor="middle" font-size="14" fill="#334E68">0</text>
<line x1="304.00" y1="100" x2="304.00" y2="640" stroke="#D9E2EC" stroke-width="1" />
<text x="304.00" y="668" text-anchor="middle" font-size="14" fill="#334E68">80</text>
<line x1="518.00" y1="100" x2="518.00" y2="640" stroke="#D9E2EC" stroke-width="1" />
<text x="518.00" y="668" text-anchor="middle" font-size="14" fill="#334E68">160</text>
<line x1="732.00" y1="100" x2="732.00" y2="640" stroke="#D9E2EC" stroke-width="1" />
<text x="732.00" y="668" text-anchor="middle" font-size="14" fill="#334E68">240</text>
<line x1="946.00" y1="100" x2="946.00" y2="640" stroke="#D9E2EC" stroke-width="1" />
<text x="946.00" y="668" text-anchor="middle" font-size="14" fill="#334E68">320</text>
<line x1="1160.00" y1="100" x2="1160.00" y2="640" stroke="#D9E2EC" stroke-width="1" />
<text x="1160.00" y="668" text-anchor="middle" font-size="14" fill="#334E68">400</text>
<line x1="90" y1="640.00" x2="1160" y2="640.00" stroke="#D9E2EC" stroke-width="1" />
<text x="74" y="644.00" text-anchor="end" font-size="14" fill="#334E68">0</text>
<line x1="90" y1="532.00" x2="1160" y2="532.00" stroke="#D9E2EC" stroke-width="1" />
<text x="74" y="536.00" text-anchor="end" font-size="14" fill="#334E68">734</text>
<line x1="90" y1="424.00" x2="1160" y2="424.00" stroke="#D9E2EC" stroke-width="1" />
<text x="74" y="428.00" text-anchor="end" font-size="14" fill="#334E68">1468</text>
<line x1="90" y1="316.00" x2="1160" y2="316.00" stroke="#D9E2EC" stroke-width="1" />
<text x="74" y="320.00" text-anchor="end" font-size="14" fill="#334E68">2202</text>
<line x1="90" y1="208.00" x2="1160" y2="208.00" stroke="#D9E2EC" stroke-width="1" />
<text x="74" y="212.00" text-anchor="end" font-size="14" fill="#334E68">2935</text>
<line x1="90" y1="100.00" x2="1160" y2="100.00" stroke="#D9E2EC" stroke-width="1" />
<text x="74" y="104.00" text-anchor="end" font-size="14" fill="#334E68">3669</text>
<line x1="90" y1="640" x2="1160" y2="640" stroke="#243B53" stroke-width="2" />
<line x1="90" y1="100" x2="90" y2="640" stroke="#243B53" stroke-width="2" />
<polyline fill="none" stroke="#1D3557" stroke-width="2.5" points="90.00,632.64 92.67,632.61 95.35,632.58 98.03,632.55 100.70,632.52 103.38,632.49 106.05,632.45 108.72,632.42 111.40,632.39 114.08,632.36 116.75,632.33 119.42,632.30 122.10,632.26 124.78,632.23 127.45,632.20 130.12,632.17 132.80,632.14 135.47,632.10 138.15,632.07 140.82,632.04 143.50,632.01 146.18,631.97 148.85,631.94 151.53,631.91 154.20,631.87 156.88,631.84 159.55,631.81 162.23,631.77 164.90,631.74 167.57,631.71 170.25,631.67 172.93,631.64 175.60,631.61 178.28,631.57 180.95,631.54 183.62,631.50 186.30,631.47 188.97,631.44 191.65,631.40 194.32,631.37 197.00,631.33 199.68,631.30 202.35,631.26 205.02,631.23 207.70,631.19 210.38,631.16 213.05,631.12 215.72,631.09 218.40,631.05 221.07,631.02 223.75,630.98 226.43,630.95 229.10,630.91 231.78,630.88 234.45,630.84 237.12,630.80 239.80,630.77 242.47,630.73 245.15,630.69 247.82,630.66 250.50,630.62 253.17,630.58 255.85,630.55 258.52,630.51 261.20,630.47 263.88,630.44 266.55,630.40 269.23,630.36 271.90,630.33 274.57,630.29 277.25,630.25 279.92,630.21 282.60,630.18 285.27,630.14 287.95,630.10 290.62,630.06 293.30,630.02 295.98,629.99 298.65,629.95 301.33,629.91 304.00,629.87 306.68,629.83 309.35,629.79 312.02,629.75 314.70,629.71 317.38,629.68 320.05,629.64 322.73,629.60 325.40,629.56 328.08,629.52 330.75,629.48 333.43,629.44 336.10,629.40 338.77,629.36 341.45,629.32 344.12,629.28 346.80,629.24 349.47,629.20 352.15,629.16 354.82,629.12 357.50,629.08 360.18,629.04 362.85,629.00 365.53,628.95 368.20,628.91 370.88,628.87 373.55,628.83 376.23,628.79 378.90,628.75 381.58,628.71 384.25,628.67 386.93,628.62 389.60,628.58 392.27,628.54 394.95,628.50 397.62,628.46 400.30,628.41 402.97,628.37 405.65,628.33 408.32,628.29 411.00,628.24 413.68,628.20 416.35,628.16 419.02,628.11 421.70,628.07 424.38,628.03 427.05,627.98 429.73,627.94 432.40,627.90 435.07,627.85 437.75,627.81 440.43,627.76 443.10,627.72 445.78,627.68 448.45,627.63 451.12,627.59 453.80,627.54 456.48,627.50 459.15,627.45 461.82,627.41 464.50,627.36 467.17,627.32 469.85,627.27 472.52,627.23 475.20,627.18 477.88,627.14 480.55,627.09 483.22,627.05 485.90,627.00 488.57,626.95 491.25,626.91 493.93,626.86 496.60,626.81 499.28,626.77 501.95,626.72 504.62,626.67 507.30,626.63 509.98,626.58 512.65,626.53 515.33,626.49 518.00,626.44 520.67,626.39 523.35,626.34 526.02,626.30 528.70,626.25 531.38,626.20 534.05,626.15 536.72,626.11 539.40,626.06 542.08,626.01 544.75,625.96 547.42,625.91 550.10,625.86 552.77,625.81 555.45,625.77 558.12,625.72 560.80,625.67 563.48,625.62 566.15,625.57 568.83,625.52 571.50,625.47 574.17,625.42 576.85,625.37 579.53,625.32 582.20,625.27 584.88,625.22 587.55,625.17 590.23,625.12 592.90,625.07 595.58,625.02 598.25,624.97 600.92,624.92 603.60,624.86 606.27,624.81 608.95,624.76 611.62,624.71 614.30,624.66 616.98,624.61 619.65,624.56 622.33,624.50 625.00,624.45 627.67,624.40 630.35,624.35 633.02,624.30 635.70,624.24 638.38,624.19 641.05,624.14 643.72,624.08 646.40,624.03 649.07,623.98 651.75,623.93 654.42,623.87 657.10,623.82 659.77,623.76 662.45,623.71 665.12,623.66 667.80,623.60 670.48,623.55 673.15,623.49 675.82,623.44 678.50,623.39 681.17,623.33 683.85,623.28 686.52,623.22 689.20,623.17 691.88,623.11 694.55,623.06 697.23,623.00 699.90,622.95 702.58,622.89 705.25,622.83 707.93,622.78 710.60,622.72 713.27,622.67 715.95,622.61 718.62,622.55 721.30,622.50 723.98,622.44 726.65,622.38 729.33,622.33 732.00,622.27 734.68,622.21 737.35,622.15 740.03,622.10 742.70,622.04 745.38,621.98 748.05,621.92 750.73,621.87 753.40,621.81 756.08,621.75 758.75,621.69 761.42,621.63 764.10,621.57 766.77,621.52 769.45,621.46 772.12,621.40 774.80,621.34 777.47,621.28 780.15,621.22 782.82,621.16 785.50,621.10 788.17,621.04 790.85,620.98 793.52,620.92 796.20,620.86 798.88,620.80 801.55,620.74 804.23,620.68 806.90,620.62 809.57,620.56 812.25,620.50 814.92,620.44 817.60,620.37 820.27,620.31 822.95,620.25 825.62,620.19 828.30,620.13 830.98,620.07 833.65,620.00 836.33,619.94 839.00,619.88 841.68,619.82 844.35,619.76 847.02,619.69 849.70,619.63 852.38,619.57 855.05,619.50 857.73,619.44 860.40,619.38 863.08,619.31 865.75,619.25 868.43,619.19 871.10,619.12 873.78,619.06 876.45,618.99 879.12,618.93 881.80,618.86 884.48,618.80 887.15,618.74 889.83,618.67 892.50,618.61 895.17,618.54 897.85,618.47 900.52,618.41 903.20,618.34 905.88,618.28 908.55,618.21 911.22,618.15 913.90,618.08 916.57,618.01 919.25,617.95 921.92,617.88 924.60,617.81 927.27,617.75 929.95,617.68 932.62,617.61 935.30,617.55 937.98,617.48 940.65,617.41 943.32,617.34 946.00,617.27 948.67,617.21 951.35,617.14 954.02,617.07 956.70,617.00 959.38,616.93 962.05,616.86 964.73,616.80 967.40,616.73 970.08,616.66 972.75,616.59 975.43,616.52 978.10,616.45 980.77,616.38 983.45,616.31 986.12,616.24 988.80,616.17 991.48,616.10 994.15,616.03 996.83,615.96 999.50,615.89 1002.18,615.82 1004.85,615.75 1007.53,615.67 1010.20,615.60 1012.88,615.53 1015.55,615.46 1018.23,615.39 1020.90,615.32 1023.58,615.24 1026.25,615.17 1028.92,615.10 1031.60,615.03 1034.28,614.95 1036.95,614.88 1039.62,614.81 1042.30,614.74 1044.97,614.66 1047.65,614.59 1050.32,614.52 1053.00,614.44 1055.67,614.37 1058.35,614.29 1061.03,614.22 1063.70,614.15 1066.38,614.07 1069.05,614.00 1071.72,613.92 1074.40,613.85 1077.07,613.77 1079.75,613.70 1082.42,613.62 1085.10,613.55 1087.78,613.47 1090.45,613.39 1093.12,613.32 1095.80,613.24 1098.47,613.17 1101.15,613.09 1103.83,613.01 1106.50,612.94 1109.18,612.86 1111.85,612.78 1114.53,612.71 1117.20,612.63 1119.88,612.55 1122.55,612.47 1125.23,612.40 1127.90,612.32 1130.58,612.24 1133.25,612.16 1135.92,612.08 1138.60,612.00 1141.28,611.93 1143.95,611.85 1146.62,611.77 1149.30,611.69 1151.98,611.61 1154.65,611.53 1157.33,611.45 1160.00,611.37" />
<polyline fill="none" stroke="#2A6F97" stroke-width="2.5" points="90.00,632.64 92.67,632.58 95.35,632.53 98.03,632.47 100.70,632.41 103.38,632.35 106.05,632.29 108.72,632.24 111.40,632.18 114.08,632.12 116.75,632.06 119.42,632.00 122.10,631.94 124.78,631.87 127.45,631.81 130.12,631.75 132.80,631.69 135.47,631.63 138.15,631.57 140.82,631.50 143.50,631.44 146.18,631.38 148.85,631.31 151.53,631.25 154.20,631.18 156.88,631.12 159.55,631.05 162.23,630.99 164.90,630.92 167.57,630.86 170.25,630.79 172.93,630.72 175.60,630.66 178.28,630.59 180.95,630.52 183.62,630.45 186.30,630.38 188.97,630.32 191.65,630.25 194.32,630.18 197.00,630.11 199.68,630.04 202.35,629.97 205.02,629.90 207.70,629.82 210.38,629.75 213.05,629.68 215.72,629.61 218.40,629.54 221.07,629.46 223.75,629.39 226.43,629.32 229.10,629.24 231.78,629.17 234.45,629.09 237.12,629.02 239.80,628.94 242.47,628.87 245.15,628.79 247.82,628.71 250.50,628.64 253.17,628.56 255.85,628.48 258.52,628.40 261.20,628.32 263.88,628.25 266.55,628.17 269.23,628.09 271.90,628.01 274.57,627.93 277.25,627.85 279.92,627.76 282.60,627.68 285.27,627.60 287.95,627.52 290.62,627.44 293.30,627.35 295.98,627.27 298.65,627.19 301.33,627.10 304.00,627.02 306.68,626.93 309.35,626.85 312.02,626.76 314.70,626.68 317.38,626.59 320.05,626.50 322.73,626.42 325.40,626.33 328.08,626.24 330.75,626.15 333.43,626.06 336.10,625.97 338.77,625.88 341.45,625.79 344.12,625.70 346.80,625.61 349.47,625.52 352.15,625.43 354.82,625.34 357.50,625.24 360.18,625.15 362.85,625.06 365.53,624.97 368.20,624.87 370.88,624.78 373.55,624.68 376.23,624.59 378.90,624.49 381.58,624.39 384.25,624.30 386.93,624.20 389.60,624.10 392.27,624.01 394.95,623.91 397.62,623.81 400.30,623.71 402.97,623.61 405.65,623.51 408.32,623.41 411.00,623.31 413.68,623.21 416.35,623.11 419.02,623.00 421.70,622.90 424.38,622.80 427.05,622.70 429.73,622.59 432.40,622.49 435.07,622.38 437.75,622.28 440.43,622.17 443.10,622.07 445.78,621.96 448.45,621.85 451.12,621.75 453.80,621.64 456.48,621.53 459.15,621.42 461.82,621.31 464.50,621.20 467.17,621.09 469.85,620.98 472.52,620.87 475.20,620.76 477.88,620.65 480.55,620.54 483.22,620.42 485.90,620.31 488.57,620.20 491.25,620.08 493.93,619.97 496.60,619.85 499.28,619.74 501.95,619.62 504.62,619.51 507.30,619.39 509.98,619.27 512.65,619.15 515.33,619.04 518.00,618.92 520.67,618.80 523.35,618.68 526.02,618.56 528.70,618.44 531.38,618.32 534.05,618.19 536.72,618.07 539.40,617.95 542.08,617.83 544.75,617.70 547.42,617.58 550.10,617.46 552.77,617.33 555.45,617.21 558.12,617.08 560.80,616.95 563.48,616.83 566.15,616.70 568.83,616.57 571.50,616.44 574.17,616.31 576.85,616.18 579.53,616.06 582.20,615.92 584.88,615.79 587.55,615.66 590.23,615.53 592.90,615.40 595.58,615.27 598.25,615.13 600.92,615.00 603.60,614.87 606.27,614.73 608.95,614.60 611.62,614.46 614.30,614.32 616.98,614.19 619.65,614.05 622.33,613.91 625.00,613.77 627.67,613.63 630.35,613.49 633.02,613.35 635.70,613.21 638.38,613.07 641.05,612.93 643.72,612.79 646.40,612.65 649.07,612.51 651.75,612.36 654.42,612.22 657.10,612.07 659.77,611.93 662.45,611.78 665.12,611.64 667.80,611.49 670.48,611.34 673.15,611.19 675.82,611.05 678.50,610.90 681.17,610.75 683.85,610.60 686.52,610.45 689.20,610.30 691.88,610.15 694.55,609.99 697.23,609.84 699.90,609.69 702.58,609.54 705.25,609.38 707.93,609.23 710.60,609.07 713.27,608.92 715.95,608.76 718.62,608.60 721.30,608.44 723.98,608.29 726.65,608.13 729.33,607.97 732.00,607.81 734.68,607.65 737.35,607.49 740.03,607.33 742.70,607.17 745.38,607.00 748.05,606.84 750.73,606.68 753.40,606.51 756.08,606.35 758.75,606.18 761.42,606.02 764.10,605.85 766.77,605.68 769.45,605.52 772.12,605.35 774.80,605.18 777.47,605.01 780.15,604.84 782.82,604.67 785.50,604.50 788.17,604.33 790.85,604.16 793.52,603.98 796.20,603.81 798.88,603.64 801.55,603.46 804.23,603.29 806.90,603.11 809.57,602.93 812.25,602.76 814.92,602.58 817.60,602.40 820.27,602.22 822.95,602.04 825.62,601.86 828.30,601.68 830.98,601.50 833.65,601.32 836.33,601.14 839.00,600.96 841.68,600.77 844.35,600.59 847.02,600.40 849.70,600.22 852.38,600.03 855.05,599.85 857.73,599.66 860.40,599.47 863.08,599.28 865.75,599.10 868.43,598.91 871.10,598.72 873.78,598.53 876.45,598.33 879.12,598.14 881.80,597.95 884.48,597.76 887.15,597.56 889.83,597.37 892.50,597.17 895.17,596.98 897.85,596.78 900.52,596.59 903.20,596.39 905.88,596.19 908.55,595.99 911.22,595.79 913.90,595.59 916.57,595.39 919.25,595.19 921.92,594.99 924.60,594.79 927.27,594.58 929.95,594.38 932.62,594.17 935.30,593.97 937.98,593.76 940.65,593.56 943.32,593.35 946.00,593.14 948.67,592.93 951.35,592.73 954.02,592.52 956.70,592.31 959.38,592.10 962.05,591.88 964.73,591.67 967.40,591.46 970.08,591.25 972.75,591.03 975.43,590.82 978.10,590.60 980.77,590.38 983.45,590.17 986.12,589.95 988.80,589.73 991.48,589.51 994.15,589.29 996.83,589.07 999.50,588.85 1002.18,588.63 1004.85,588.41 1007.53,588.19 1010.20,587.96 1012.88,587.74 1015.55,587.51 1018.23,587.29 1020.90,587.06 1023.58,586.84 1026.25,586.61 1028.92,586.38 1031.60,586.15 1034.28,585.92 1036.95,585.69 1039.62,585.46 1042.30,585.23 1044.97,585.00 1047.65,584.76 1050.32,584.53 1053.00,584.30 1055.67,584.06 1058.35,583.82 1061.03,583.59 1063.70,583.35 1066.38,583.11 1069.05,582.87 1071.72,582.64 1074.40,582.40 1077.07,582.16 1079.75,581.91 1082.42,581.67 1085.10,581.43 1087.78,581.19 1090.45,580.94 1093.12,580.70 1095.80,580.45 1098.47,580.20 1101.15,579.96 1103.83,579.71 1106.50,579.46 1109.18,579.21 1111.85,578.96 1114.53,578.71 1117.20,578.46 1119.88,578.21 1122.55,577.96 1125.23,577.70 1127.90,577.45 1130.58,577.19 1133.25,576.94 1135.92,576.68 1138.60,576.42 1141.28,576.17 1143.95,575.91 1146.62,575.65 1149.30,575.39 1151.98,575.13 1154.65,574.87 1157.33,574.60 1160.00,574.34" />
<polyline fill="none" stroke="#2D6A4F" stroke-width="2.5" points="90.00,632.64 92.67,632.55 95.35,632.46 98.03,632.37 100.70,632.27 103.38,632.18 106.05,632.08 108.72,631.99 111.40,631.89 114.08,631.79 116.75,631.69 119.42,631.59 122.10,631.49 124.78,631.39 127.45,631.29 130.12,631.19 132.80,631.08 135.47,630.98 138.15,630.87 140.82,630.77 143.50,630.66 146.18,630.55 148.85,630.44 151.53,630.33 154.20,630.22 156.88,630.11 159.55,630.00 162.23,629.89 164.90,629.77 167.57,629.66 170.25,629.54 172.93,629.42 175.60,629.31 178.28,629.19 180.95,629.07 183.62,628.95 186.30,628.83 188.97,628.70 191.65,628.58 194.32,628.46 197.00,628.33 199.68,628.20 202.35,628.08 205.02,627.95 207.70,627.82 210.38,627.69 213.05,627.56 215.72,627.43 218.40,627.30 221.07,627.16 223.75,627.03 226.43,626.89 229.10,626.75 231.78,626.62 234.45,626.48 237.12,626.34 239.80,626.20 242.47,626.06 245.15,625.91 247.82,625.77 250.50,625.62 253.17,625.48 255.85,625.33 258.52,625.18 261.20,625.03 263.88,624.88 266.55,624.73 269.23,624.58 271.90,624.43 274.57,624.27 277.25,624.12 279.92,623.96 282.60,623.80 285.27,623.65 287.95,623.49 290.62,623.33 293.30,623.16 295.98,623.00 298.65,622.84 301.33,622.67 304.00,622.51 306.68,622.34 309.35,622.17 312.02,622.00 314.70,621.83 317.38,621.66 320.05,621.49 322.73,621.31 325.40,621.14 328.08,620.96 330.75,620.78 333.43,620.60 336.10,620.42 338.77,620.24 341.45,620.06 344.12,619.88 346.80,619.69 349.47,619.51 352.15,619.32 354.82,619.13 357.50,618.94 360.18,618.75 362.85,618.56 365.53,618.37 368.20,618.17 370.88,617.98 373.55,617.78 376.23,617.59 378.90,617.39 381.58,617.19 384.25,616.98 386.93,616.78 389.60,616.58 392.27,616.37 394.95,616.17 397.62,615.96 400.30,615.75 402.97,615.54 405.65,615.33 408.32,615.12 411.00,614.90 413.68,614.69 416.35,614.47 419.02,614.25 421.70,614.03 424.38,613.81 427.05,613.59 429.73,613.37 432.40,613.14 435.07,612.92 437.75,612.69 440.43,612.46 443.10,612.23 445.78,612.00 448.45,611.77 451.12,611.54 453.80,611.30 456.48,611.06 459.15,610.83 461.82,610.59 464.50,610.35 467.17,610.10 469.85,609.86 472.52,609.62 475.20,609.37 477.88,609.12 480.55,608.87 483.22,608.62 485.90,608.37 488.57,608.12 491.25,607.87 493.93,607.61 496.60,607.35 499.28,607.09 501.95,606.83 504.62,606.57 507.30,606.31 509.98,606.04 512.65,605.78 515.33,605.51 518.00,605.24 520.67,604.97 523.35,604.70 526.02,604.43 528.70,604.15 531.38,603.88 534.05,603.60 536.72,603.32 539.40,603.04 542.08,602.76 544.75,602.47 547.42,602.19 550.10,601.90 552.77,601.61 555.45,601.32 558.12,601.03 560.80,600.74 563.48,600.44 566.15,600.15 568.83,599.85 571.50,599.55 574.17,599.25 576.85,598.95 579.53,598.65 582.20,598.34 584.88,598.03 587.55,597.73 590.23,597.42 592.90,597.10 595.58,596.79 598.25,596.48 600.92,596.16 603.60,595.84 606.27,595.52 608.95,595.20 611.62,594.88 614.30,594.56 616.98,594.23 619.65,593.90 622.33,593.57 625.00,593.24 627.67,592.91 630.35,592.57 633.02,592.24 635.70,591.90 638.38,591.56 641.05,591.22 643.72,590.88 646.40,590.53 649.07,590.19 651.75,589.84 654.42,589.49 657.10,589.14 659.77,588.79 662.45,588.43 665.12,588.08 667.80,587.72 670.48,587.36 673.15,587.00 675.82,586.64 678.50,586.27 681.17,585.91 683.85,585.54 686.52,585.17 689.20,584.80 691.88,584.42 694.55,584.05 697.23,583.67 699.90,583.29 702.58,582.91 705.25,582.53 707.93,582.14 710.60,581.76 713.27,581.37 715.95,580.98 718.62,580.59 721.30,580.20 723.98,579.80 726.65,579.41 729.33,579.01 732.00,578.61 734.68,578.20 737.35,577.80 740.03,577.39 742.70,576.99 745.38,576.58 748.05,576.16 750.73,575.75 753.40,575.34 756.08,574.92 758.75,574.50 761.42,574.08 764.10,573.66 766.77,573.23 769.45,572.81 772.12,572.38 774.80,571.95 777.47,571.51 780.15,571.08 782.82,570.64 785.50,570.21 788.17,569.77 790.85,569.32 793.52,568.88 796.20,568.43 798.88,567.99 801.55,567.54 804.23,567.09 806.90,566.63 809.57,566.18 812.25,565.72 814.92,565.26 817.60,564.80 820.27,564.33 822.95,563.87 825.62,563.40 828.30,562.93 830.98,562.46 833.65,561.99 836.33,561.51 839.00,561.03 841.68,560.55 844.35,560.07 847.02,559.59 849.70,559.10 852.38,558.61 855.05,558.12 857.73,557.63 860.40,557.14 863.08,556.64 865.75,556.14 868.43,555.64 871.10,555.14 873.78,554.64 876.45,554.13 879.12,553.62 881.80,553.11 884.48,552.60 887.15,552.08 889.83,551.57 892.50,551.05 895.17,550.53 897.85,550.00 900.52,549.48 903.20,548.95 905.88,548.42 908.55,547.89 911.22,547.35 913.90,546.82 916.57,546.28 919.25,545.74 921.92,545.20 924.60,544.65 927.27,544.10 929.95,543.55 932.62,543.00 935.30,542.45 937.98,541.89 940.65,541.33 943.32,540.77 946.00,540.21 948.67,539.65 951.35,539.08 954.02,538.51 956.70,537.94 959.38,537.36 962.05,536.79 964.73,536.21 967.40,535.63 970.08,535.05 972.75,534.46 975.43,533.87 978.10,533.28 980.77,532.69 983.45,532.10 986.12,531.50 988.80,530.90 991.48,530.30 994.15,529.70 996.83,529.09 999.50,528.48 1002.18,527.87 1004.85,527.26 1007.53,526.64 1010.20,526.03 1012.88,525.41 1015.55,524.78 1018.23,524.16 1020.90,523.53 1023.58,522.90 1026.25,522.27 1028.92,521.64 1031.60,521.00 1034.28,520.36 1036.95,519.72 1039.62,519.08 1042.30,518.43 1044.97,517.78 1047.65,517.13 1050.32,516.48 1053.00,515.82 1055.67,515.16 1058.35,514.50 1061.03,513.84 1063.70,513.17 1066.38,512.51 1069.05,511.84 1071.72,511.16 1074.40,510.49 1077.07,509.81 1079.75,509.13 1082.42,508.45 1085.10,507.76 1087.78,507.07 1090.45,506.38 1093.12,505.69 1095.80,505.00 1098.47,504.30 1101.15,503.60 1103.83,502.89 1106.50,502.19 1109.18,501.48 1111.85,500.77 1114.53,500.06 1117.20,499.34 1119.88,498.62 1122.55,497.90 1125.23,497.18 1127.90,496.45 1130.58,495.73 1133.25,494.99 1135.92,494.26 1138.60,493.52 1141.28,492.79 1143.95,492.04 1146.62,491.30 1149.30,490.55 1151.98,489.80 1154.65,489.05 1157.33,488.30 1160.00,487.54" />
<polyline fill="none" stroke="#40916C" stroke-width="2.5" points="90.00,632.64 92.67,632.51 95.35,632.39 98.03,632.26 100.70,632.13 103.38,631.99 106.05,631.86 108.72,631.72 111.40,631.59 114.08,631.45 116.75,631.31 119.42,631.16 122.10,631.02 124.78,630.87 127.45,630.73 130.12,630.58 132.80,630.43 135.47,630.28 138.15,630.12 140.82,629.97 143.50,629.81 146.18,629.65 148.85,629.49 151.53,629.33 154.20,629.16 156.88,629.00 159.55,628.83 162.23,628.66 164.90,628.49 167.57,628.32 170.25,628.14 172.93,627.96 175.60,627.79 178.28,627.61 180.95,627.42 183.62,627.24 186.30,627.05 188.97,626.87 191.65,626.68 194.32,626.48 197.00,626.29 199.68,626.09 202.35,625.90 205.02,625.70 207.70,625.50 210.38,625.29 213.05,625.09 215.72,624.88 218.40,624.67 221.07,624.46 223.75,624.25 226.43,624.03 229.10,623.81 231.78,623.59 234.45,623.37 237.12,623.15 239.80,622.92 242.47,622.70 245.15,622.47 247.82,622.23 250.50,622.00 253.17,621.76 255.85,621.52 258.52,621.28 261.20,621.04 263.88,620.80 266.55,620.55 269.23,620.30 271.90,620.05 274.57,619.79 277.25,619.54 279.92,619.28 282.60,619.02 285.27,618.75 287.95,618.49 290.62,618.22 293.30,617.95 295.98,617.68 298.65,617.40 301.33,617.13 304.00,616.85 306.68,616.57 309.35,616.28 312.02,615.99 314.70,615.71 317.38,615.41 320.05,615.12 322.73,614.82 325.40,614.53 328.08,614.22 330.75,613.92 333.43,613.61 336.10,613.31 338.77,612.99 341.45,612.68 344.12,612.36 346.80,612.05 349.47,611.72 352.15,611.40 354.82,611.07 357.50,610.74 360.18,610.41 362.85,610.08 365.53,609.74 368.20,609.40 370.88,609.06 373.55,608.71 376.23,608.37 378.90,608.02 381.58,607.66 384.25,607.31 386.93,606.95 389.60,606.59 392.27,606.22 394.95,605.86 397.62,605.49 400.30,605.11 402.97,604.74 405.65,604.36 408.32,603.98 411.00,603.60 413.68,603.21 416.35,602.82 419.02,602.43 421.70,602.03 424.38,601.63 427.05,601.23 429.73,600.83 432.40,600.42 435.07,600.01 437.75,599.60 440.43,599.18 443.10,598.77 445.78,598.34 448.45,597.92 451.12,597.49 453.80,597.06 456.48,596.63 459.15,596.19 461.82,595.75 464.50,595.31 467.17,594.86 469.85,594.41 472.52,593.96 475.20,593.50 477.88,593.05 480.55,592.58 483.22,592.12 485.90,591.65 488.57,591.18 491.25,590.70 493.93,590.23 496.60,589.75 499.28,589.26 501.95,588.77 504.62,588.28 507.30,587.79 509.98,587.29 512.65,586.79 515.33,586.29 518.00,585.78 520.67,585.27 523.35,584.76 526.02,584.24 528.70,583.72 531.38,583.19 534.05,582.67 536.72,582.14 539.40,581.60 542.08,581.06 544.75,580.52 547.42,579.98 550.10,579.43 552.77,578.88 555.45,578.32 558.12,577.76 560.80,577.20 563.48,576.64 566.15,576.07 568.83,575.49 571.50,574.92 574.17,574.34 576.85,573.75 579.53,573.17 582.20,572.58 584.88,571.98 587.55,571.38 590.23,570.78 592.90,570.18 595.58,569.57 598.25,568.95 600.92,568.34 603.60,567.72 606.27,567.09 608.95,566.46 611.62,565.83 614.30,565.20 616.98,564.56 619.65,563.92 622.33,563.27 625.00,562.62 627.67,561.96 630.35,561.30 633.02,560.64 635.70,559.98 638.38,559.31 641.05,558.63 643.72,557.95 646.40,557.27 649.07,556.59 651.75,555.90 654.42,555.20 657.10,554.50 659.77,553.80 662.45,553.10 665.12,552.39 667.80,551.67 670.48,550.96 673.15,550.23 675.82,549.51 678.50,548.78 681.17,548.04 683.85,547.30 686.52,546.56 689.20,545.81 691.88,545.06 694.55,544.31 697.23,543.55 699.90,542.79 702.58,542.02 705.25,541.25 707.93,540.47 710.60,539.69 713.27,538.90 715.95,538.11 718.62,537.32 721.30,536.52 723.98,535.72 726.65,534.92 729.33,534.10 732.00,533.29 734.68,532.47 737.35,531.65 740.03,530.82 742.70,529.99 745.38,529.15 748.05,528.31 750.73,527.46 753.40,526.61 756.08,525.76 758.75,524.90 761.42,524.03 764.10,523.16 766.77,522.29 769.45,521.41 772.12,520.53 774.80,519.64 777.47,518.75 780.15,517.86 782.82,516.96 785.50,516.05 788.17,515.14 790.85,514.23 793.52,513.31 796.20,512.38 798.88,511.46 801.55,510.52 804.23,509.58 806.90,508.64 809.57,507.69 812.25,506.74 814.92,505.78 817.60,504.82 820.27,503.86 822.95,502.88 825.62,501.91 828.30,500.93 830.98,499.94 833.65,498.95 836.33,497.95 839.00,496.95 841.68,495.95 844.35,494.94 847.02,493.92 849.70,492.90 852.38,491.88 855.05,490.85 857.73,489.81 860.40,488.77 863.08,487.72 865.75,486.67 868.43,485.62 871.10,484.56 873.78,483.49 876.45,482.42 879.12,481.34 881.80,480.26 884.48,479.18 887.15,478.08 889.83,476.99 892.50,475.89 895.17,474.78 897.85,473.67 900.52,472.55 903.20,471.43 905.88,470.30 908.55,469.17 911.22,468.03 913.90,466.88 916.57,465.73 919.25,464.58 921.92,463.42 924.60,462.25 927.27,461.08 929.95,459.91 932.62,458.73 935.30,457.54 937.98,456.35 940.65,455.15 943.32,453.95 946.00,452.74 948.67,451.52 951.35,450.31 954.02,449.08 956.70,447.85 959.38,446.61 962.05,445.37 964.73,444.12 967.40,442.87 970.08,441.61 972.75,440.35 975.43,439.08 978.10,437.80 980.77,436.52 983.45,435.24 986.12,433.95 988.80,432.65 991.48,431.34 994.15,430.03 996.83,428.72 999.50,427.40 1002.18,426.07 1004.85,424.74 1007.53,423.40 1010.20,422.06 1012.88,420.71 1015.55,419.35 1018.23,417.99 1020.90,416.62 1023.58,415.25 1026.25,413.87 1028.92,412.48 1031.60,411.09 1034.28,409.70 1036.95,408.29 1039.62,406.89 1042.30,405.47 1044.97,404.05 1047.65,402.62 1050.32,401.19 1053.00,399.75 1055.67,398.31 1058.35,396.85 1061.03,395.40 1063.70,393.93 1066.38,392.46 1069.05,390.99 1071.72,389.51 1074.40,388.02 1077.07,386.53 1079.75,385.03 1082.42,383.52 1085.10,382.01 1087.78,380.49 1090.45,378.96 1093.12,377.43 1095.80,375.89 1098.47,374.35 1101.15,372.80 1103.83,371.24 1106.50,369.68 1109.18,368.11 1111.85,366.54 1114.53,364.95 1117.20,363.37 1119.88,361.77 1122.55,360.17 1125.23,358.56 1127.90,356.95 1130.58,355.33 1133.25,353.70 1135.92,352.07 1138.60,350.43 1141.28,348.78 1143.95,347.13 1146.62,345.47 1149.30,343.80 1151.98,342.13 1154.65,340.45 1157.33,338.76 1160.00,337.07" />
<polyline fill="none" stroke="#74C69D" stroke-width="2.5" points="90.00,632.64 92.67,632.49 95.35,632.34 98.03,632.18 100.70,632.02 103.38,631.86 106.05,631.70 108.72,631.53 111.40,631.36 114.08,631.19 116.75,631.02 119.42,630.85 122.10,630.67 124.78,630.49 127.45,630.31 130.12,630.13 132.80,629.94 135.47,629.75 138.15,629.56 140.82,629.37 143.50,629.17 146.18,628.97 148.85,628.77 151.53,628.57 154.20,628.36 156.88,628.15 159.55,627.94 162.23,627.72 164.90,627.51 167.57,627.29 170.25,627.07 172.93,626.84 175.60,626.61 178.28,626.38 180.95,626.15 183.62,625.91 186.30,625.67 188.97,625.43 191.65,625.19 194.32,624.94 197.00,624.69 199.68,624.44 202.35,624.18 205.02,623.92 207.70,623.66 210.38,623.40 213.05,623.13 215.72,622.86 218.40,622.58 221.07,622.31 223.75,622.03 226.43,621.74 229.10,621.46 231.78,621.17 234.45,620.87 237.12,620.58 239.80,620.28 242.47,619.98 245.15,619.67 247.82,619.36 250.50,619.05 253.17,618.74 255.85,618.42 258.52,618.10 261.20,617.77 263.88,617.44 266.55,617.11 269.23,616.78 271.90,616.44 274.57,616.10 277.25,615.75 279.92,615.40 282.60,615.05 285.27,614.70 287.95,614.34 290.62,613.97 293.30,613.61 295.98,613.24 298.65,612.86 301.33,612.48 304.00,612.10 306.68,611.72 309.35,611.33 312.02,610.94 314.70,610.54 317.38,610.14 320.05,609.74 322.73,609.33 325.40,608.92 328.08,608.51 330.75,608.09 333.43,607.67 336.10,607.24 338.77,606.81 341.45,606.37 344.12,605.94 346.80,605.49 349.47,605.05 352.15,604.60 354.82,604.14 357.50,603.68 360.18,603.22 362.85,602.76 365.53,602.28 368.20,601.81 370.88,601.33 373.55,600.85 376.23,600.36 378.90,599.87 381.58,599.37 384.25,598.87 386.93,598.37 389.60,597.86 392.27,597.35 394.95,596.83 397.62,596.31 400.30,595.78 402.97,595.25 405.65,594.72 408.32,594.18 411.00,593.63 413.68,593.08 416.35,592.53 419.02,591.97 421.70,591.41 424.38,590.84 427.05,590.27 429.73,589.70 432.40,589.12 435.07,588.53 437.75,587.94 440.43,587.35 443.10,586.75 445.78,586.14 448.45,585.53 451.12,584.92 453.80,584.30 456.48,583.68 459.15,583.05 461.82,582.42 464.50,581.78 467.17,581.13 469.85,580.49 472.52,579.83 475.20,579.18 477.88,578.51 480.55,577.84 483.22,577.17 485.90,576.49 488.57,575.81 491.25,575.12 493.93,574.43 496.60,573.73 499.28,573.03 501.95,572.32 504.62,571.60 507.30,570.88 509.98,570.16 512.65,569.43 515.33,568.69 518.00,567.95 520.67,567.21 523.35,566.45 526.02,565.70 528.70,564.93 531.38,564.17 534.05,563.39 536.72,562.61 539.40,561.83 542.08,561.04 544.75,560.24 547.42,559.44 550.10,558.64 552.77,557.82 555.45,557.01 558.12,556.18 560.80,555.35 563.48,554.52 566.15,553.68 568.83,552.83 571.50,551.98 574.17,551.12 576.85,550.26 579.53,549.39 582.20,548.51 584.88,547.63 587.55,546.74 590.23,545.85 592.90,544.95 595.58,544.04 598.25,543.13 600.92,542.21 603.60,541.29 606.27,540.36 608.95,539.42 611.62,538.48 614.30,537.53 616.98,536.58 619.65,535.62 622.33,534.65 625.00,533.68 627.67,532.70 630.35,531.71 633.02,530.72 635.70,529.72 638.38,528.72 641.05,527.71 643.72,526.69 646.40,525.67 649.07,524.64 651.75,523.60 654.42,522.56 657.10,521.51 659.77,520.45 662.45,519.39 665.12,518.32 667.80,517.24 670.48,516.16 673.15,515.07 675.82,513.98 678.50,512.87 681.17,511.76 683.85,510.65 686.52,509.52 689.20,508.39 691.88,507.26 694.55,506.11 697.23,504.96 699.90,503.81 702.58,502.64 705.25,501.47 707.93,500.29 710.60,499.11 713.27,497.91 715.95,496.72 718.62,495.51 721.30,494.30 723.98,493.08 726.65,491.85 729.33,490.61 732.00,489.37 734.68,488.12 737.35,486.87 740.03,485.60 742.70,484.33 745.38,483.05 748.05,481.77 750.73,480.48 753.40,479.17 756.08,477.87 758.75,476.55 761.42,475.23 764.10,473.90 766.77,472.56 769.45,471.22 772.12,469.86 774.80,468.50 777.47,467.14 780.15,465.76 782.82,464.38 785.50,462.99 788.17,461.59 790.85,460.18 793.52,458.77 796.20,457.35 798.88,455.92 801.55,454.48 804.23,453.04 806.90,451.59 809.57,450.12 812.25,448.66 814.92,447.18 817.60,445.70 820.27,444.20 822.95,442.70 825.62,441.19 828.30,439.68 830.98,438.15 833.65,436.62 836.33,435.08 839.00,433.53 841.68,431.97 844.35,430.41 847.02,428.83 849.70,427.25 852.38,425.66 855.05,424.06 857.73,422.46 860.40,420.84 863.08,419.22 865.75,417.59 868.43,415.95 871.10,414.30 873.78,412.64 876.45,410.98 879.12,409.30 881.80,407.62 884.48,405.93 887.15,404.23 889.83,402.52 892.50,400.80 895.17,399.08 897.85,397.34 900.52,395.60 903.20,393.85 905.88,392.09 908.55,390.32 911.22,388.54 913.90,386.75 916.57,384.96 919.25,383.15 921.92,381.34 924.60,379.52 927.27,377.68 929.95,375.84 932.62,373.99 935.30,372.14 937.98,370.27 940.65,368.39 943.32,366.51 946.00,364.61 948.67,362.71 951.35,360.79 954.02,358.87 956.70,356.94 959.38,355.00 962.05,353.05 964.73,351.09 967.40,349.12 970.08,347.14 972.75,345.15 975.43,343.15 978.10,341.15 980.77,339.13 983.45,337.10 986.12,335.07 988.80,333.02 991.48,330.97 994.15,328.91 996.83,326.83 999.50,324.75 1002.18,322.66 1004.85,320.55 1007.53,318.44 1010.20,316.32 1012.88,314.19 1015.55,312.04 1018.23,309.89 1020.90,307.73 1023.58,305.56 1026.25,303.38 1028.92,301.19 1031.60,298.99 1034.28,296.77 1036.95,294.55 1039.62,292.32 1042.30,290.08 1044.97,287.83 1047.65,285.57 1050.32,283.30 1053.00,281.01 1055.67,278.72 1058.35,276.42 1061.03,274.11 1063.70,271.79 1066.38,269.45 1069.05,267.11 1071.72,264.76 1074.40,262.39 1077.07,260.02 1079.75,257.63 1082.42,255.24 1085.10,252.83 1087.78,250.41 1090.45,247.99 1093.12,245.55 1095.80,243.10 1098.47,240.64 1101.15,238.17 1103.83,235.69 1106.50,233.20 1109.18,230.70 1111.85,228.19 1114.53,225.67 1117.20,223.13 1119.88,220.59 1122.55,218.03 1125.23,215.47 1127.90,212.89 1130.58,210.30 1133.25,207.70 1135.92,205.09 1138.60,202.47 1141.28,199.84 1143.95,197.20 1146.62,194.54 1149.30,191.88 1151.98,189.20 1154.65,186.51 1157.33,183.82 1160.00,181.11" />
<polyline fill="none" stroke="#F4A261" stroke-width="4.5" points="90.00,632.64 92.67,632.48 95.35,632.32 98.03,632.16 100.70,632.00 103.38,631.83 106.05,631.66 108.72,631.49 111.40,631.31 114.08,631.14 116.75,630.96 119.42,630.78 122.10,630.59 124.78,630.41 127.45,630.22 130.12,630.02 132.80,629.83 135.47,629.63 138.15,629.43 140.82,629.23 143.50,629.02 146.18,628.82 148.85,628.61 151.53,628.39 154.20,628.18 156.88,627.96 159.55,627.73 162.23,627.51 164.90,627.28 167.57,627.05 170.25,626.82 172.93,626.58 175.60,626.34 178.28,626.10 180.95,625.85 183.62,625.60 186.30,625.35 188.97,625.10 191.65,624.84 194.32,624.58 197.00,624.32 199.68,624.05 202.35,623.78 205.02,623.51 207.70,623.23 210.38,622.95 213.05,622.67 215.72,622.38 218.40,622.09 221.07,621.80 223.75,621.50 226.43,621.20 229.10,620.90 231.78,620.59 234.45,620.28 237.12,619.97 239.80,619.66 242.47,619.34 245.15,619.01 247.82,618.68 250.50,618.35 253.17,618.02 255.85,617.68 258.52,617.34 261.20,617.00 263.88,616.65 266.55,616.29 269.23,615.94 271.90,615.58 274.57,615.21 277.25,614.85 279.92,614.48 282.60,614.10 285.27,613.72 287.95,613.34 290.62,612.95 293.30,612.56 295.98,612.17 298.65,611.77 301.33,611.37 304.00,610.96 306.68,610.55 309.35,610.14 312.02,609.72 314.70,609.30 317.38,608.87 320.05,608.44 322.73,608.01 325.40,607.57 328.08,607.12 330.75,606.68 333.43,606.22 336.10,605.77 338.77,605.31 341.45,604.84 344.12,604.37 346.80,603.90 349.47,603.42 352.15,602.94 354.82,602.46 357.50,601.96 360.18,601.47 362.85,600.97 365.53,600.47 368.20,599.96 370.88,599.44 373.55,598.93 376.23,598.40 378.90,597.88 381.58,597.34 384.25,596.81 386.93,596.27 389.60,595.72 392.27,595.17 394.95,594.61 397.62,594.05 400.30,593.49 402.97,592.92 405.65,592.34 408.32,591.76 411.00,591.18 413.68,590.59 416.35,589.99 419.02,589.40 421.70,588.79 424.38,588.18 427.05,587.57 429.73,586.95 432.40,586.32 435.07,585.69 437.75,585.06 440.43,584.42 443.10,583.77 445.78,583.12 448.45,582.46 451.12,581.80 453.80,581.14 456.48,580.46 459.15,579.79 461.82,579.11 464.50,578.42 467.17,577.72 469.85,577.03 472.52,576.32 475.20,575.61 477.88,574.90 480.55,574.17 483.22,573.45 485.90,572.72 488.57,571.98 491.25,571.24 493.93,570.49 496.60,569.73 499.28,568.97 501.95,568.21 504.62,567.43 507.30,566.66 509.98,565.87 512.65,565.08 515.33,564.29 518.00,563.49 520.67,562.68 523.35,561.87 526.02,561.05 528.70,560.22 531.38,559.39 534.05,558.56 536.72,557.71 539.40,556.87 542.08,556.01 544.75,555.15 547.42,554.28 550.10,553.41 552.77,552.53 555.45,551.64 558.12,550.75 560.80,549.85 563.48,548.95 566.15,548.04 568.83,547.12 571.50,546.20 574.17,545.26 576.85,544.33 579.53,543.38 582.20,542.44 584.88,541.48 587.55,540.52 590.23,539.55 592.90,538.57 595.58,537.59 598.25,536.60 600.92,535.60 603.60,534.60 606.27,533.59 608.95,532.58 611.62,531.55 614.30,530.52 616.98,529.49 619.65,528.44 622.33,527.39 625.00,526.34 627.67,525.27 630.35,524.20 633.02,523.13 635.70,522.04 638.38,520.95 641.05,519.85 643.72,518.74 646.40,517.63 649.07,516.51 651.75,515.38 654.42,514.25 657.10,513.11 659.77,511.96 662.45,510.80 665.12,509.64 667.80,508.47 670.48,507.29 673.15,506.11 675.82,504.91 678.50,503.71 681.17,502.50 683.85,501.29 686.52,500.07 689.20,498.84 691.88,497.60 694.55,496.35 697.23,495.10 699.90,493.84 702.58,492.57 705.25,491.30 707.93,490.01 710.60,488.72 713.27,487.42 715.95,486.12 718.62,484.80 721.30,483.48 723.98,482.15 726.65,480.81 729.33,479.46 732.00,478.11 734.68,476.75 737.35,475.38 740.03,474.00 742.70,472.61 745.38,471.22 748.05,469.82 750.73,468.41 753.40,466.99 756.08,465.56 758.75,464.13 761.42,462.68 764.10,461.23 766.77,459.77 769.45,458.30 772.12,456.83 774.80,455.34 777.47,453.85 780.15,452.35 782.82,450.84 785.50,449.32 788.17,447.79 790.85,446.26 793.52,444.71 796.20,443.16 798.88,441.60 801.55,440.03 804.23,438.45 806.90,436.86 809.57,435.27 812.25,433.66 814.92,432.05 817.60,430.43 820.27,428.79 822.95,427.15 825.62,425.51 828.30,423.85 830.98,422.18 833.65,420.50 836.33,418.82 839.00,417.13 841.68,415.42 844.35,413.71 847.02,411.99 849.70,410.26 852.38,408.52 855.05,406.77 857.73,405.01 860.40,403.25 863.08,401.47 865.75,399.68 868.43,397.89 871.10,396.08 873.78,394.27 876.45,392.45 879.12,390.62 881.80,388.77 884.48,386.92 887.15,385.06 889.83,383.19 892.50,381.31 895.17,379.42 897.85,377.52 900.52,375.61 903.20,373.69 905.88,371.76 908.55,369.82 911.22,367.88 913.90,365.92 916.57,363.95 919.25,361.97 921.92,359.99 924.60,357.99 927.27,355.98 929.95,353.96 932.62,351.94 935.30,349.90 937.98,347.85 940.65,345.79 943.32,343.73 946.00,341.65 948.67,339.56 951.35,337.46 954.02,335.35 956.70,333.23 959.38,331.11 962.05,328.97 964.73,326.82 967.40,324.66 970.08,322.49 972.75,320.31 975.43,318.11 978.10,315.91 980.77,313.70 983.45,311.48 986.12,309.24 988.80,307.00 991.48,304.74 994.15,302.48 996.83,300.20 999.50,297.92 1002.18,295.62 1004.85,293.31 1007.53,290.99 1010.20,288.66 1012.88,286.32 1015.55,283.97 1018.23,281.61 1020.90,279.23 1023.58,276.85 1026.25,274.45 1028.92,272.05 1031.60,269.63 1034.28,267.20 1036.95,264.76 1039.62,262.31 1042.30,259.85 1044.97,257.37 1047.65,254.89 1050.32,252.39 1053.00,249.89 1055.67,247.37 1058.35,244.84 1061.03,242.30 1063.70,239.74 1066.38,237.18 1069.05,234.60 1071.72,232.02 1074.40,229.42 1077.07,226.81 1079.75,224.19 1082.42,221.55 1085.10,218.91 1087.78,216.25 1090.45,213.58 1093.12,210.90 1095.80,208.21 1098.47,205.51 1101.15,202.79 1103.83,200.06 1106.50,197.33 1109.18,194.57 1111.85,191.81 1114.53,189.04 1117.20,186.25 1119.88,183.45 1122.55,180.64 1125.23,177.82 1127.90,174.98 1130.58,172.13 1133.25,169.27 1135.92,166.40 1138.60,163.52 1141.28,160.62 1143.95,157.71 1146.62,154.79 1149.30,151.86 1151.98,148.91 1154.65,145.95 1157.33,142.98 1160.00,140.00" />
<polyline fill="none" stroke="#E76F51" stroke-width="2.5" points="90.00,632.64 92.67,632.50 95.35,632.36 98.03,632.21 100.70,632.07 103.38,631.92 106.05,631.77 108.72,631.61 111.40,631.46 114.08,631.30 116.75,631.14 119.42,630.98 122.10,630.82 124.78,630.65 127.45,630.49 130.12,630.32 132.80,630.15 135.47,629.97 138.15,629.80 140.82,629.62 143.50,629.44 146.18,629.26 148.85,629.08 151.53,628.89 154.20,628.70 156.88,628.51 159.55,628.32 162.23,628.13 164.90,627.93 167.57,627.73 170.25,627.53 172.93,627.32 175.60,627.12 178.28,626.91 180.95,626.70 183.62,626.48 186.30,626.27 188.97,626.05 191.65,625.83 194.32,625.61 197.00,625.38 199.68,625.15 202.35,624.92 205.02,624.69 207.70,624.45 210.38,624.22 213.05,623.98 215.72,623.73 218.40,623.49 221.07,623.24 223.75,622.99 226.43,622.73 229.10,622.48 231.78,622.22 234.45,621.96 237.12,621.69 239.80,621.43 242.47,621.16 245.15,620.89 247.82,620.61 250.50,620.33 253.17,620.05 255.85,619.77 258.52,619.48 261.20,619.20 263.88,618.90 266.55,618.61 269.23,618.31 271.90,618.01 274.57,617.71 277.25,617.40 279.92,617.09 282.60,616.78 285.27,616.47 287.95,616.15 290.62,615.83 293.30,615.51 295.98,615.18 298.65,614.85 301.33,614.52 304.00,614.18 306.68,613.84 309.35,613.50 312.02,613.15 314.70,612.81 317.38,612.45 320.05,612.10 322.73,611.74 325.40,611.38 328.08,611.02 330.75,610.65 333.43,610.28 336.10,609.90 338.77,609.53 341.45,609.15 344.12,608.76 346.80,608.38 349.47,607.98 352.15,607.59 354.82,607.19 357.50,606.79 360.18,606.39 362.85,605.98 365.53,605.57 368.20,605.16 370.88,604.74 373.55,604.32 376.23,603.89 378.90,603.46 381.58,603.03 384.25,602.60 386.93,602.16 389.60,601.71 392.27,601.27 394.95,600.82 397.62,600.36 400.30,599.91 402.97,599.45 405.65,598.98 408.32,598.51 411.00,598.04 413.68,597.56 416.35,597.08 419.02,596.60 421.70,596.11 424.38,595.62 427.05,595.13 429.73,594.63 432.40,594.13 435.07,593.62 437.75,593.11 440.43,592.60 443.10,592.08 445.78,591.56 448.45,591.03 451.12,590.50 453.80,589.97 456.48,589.43 459.15,588.89 461.82,588.34 464.50,587.79 467.17,587.24 469.85,586.68 472.52,586.11 475.20,585.55 477.88,584.98 480.55,584.40 483.22,583.82 485.90,583.24 488.57,582.65 491.25,582.06 493.93,581.46 496.60,580.86 499.28,580.26 501.95,579.65 504.62,579.04 507.30,578.42 509.98,577.80 512.65,577.17 515.33,576.54 518.00,575.90 520.67,575.27 523.35,574.62 526.02,573.97 528.70,573.32 531.38,572.66 534.05,572.00 536.72,571.33 539.40,570.66 542.08,569.99 544.75,569.31 547.42,568.62 550.10,567.93 552.77,567.24 555.45,566.54 558.12,565.83 560.80,565.13 563.48,564.41 566.15,563.70 568.83,562.97 571.50,562.25 574.17,561.51 576.85,560.78 579.53,560.04 582.20,559.29 584.88,558.54 587.55,557.78 590.23,557.02 592.90,556.25 595.58,555.48 598.25,554.71 600.92,553.93 603.60,553.14 606.27,552.35 608.95,551.55 611.62,550.75 614.30,549.95 616.98,549.13 619.65,548.32 622.33,547.50 625.00,546.67 627.67,545.84 630.35,545.00 633.02,544.16 635.70,543.31 638.38,542.46 641.05,541.60 643.72,540.74 646.40,539.87 649.07,539.00 651.75,538.12 654.42,537.23 657.10,536.35 659.77,535.45 662.45,534.55 665.12,533.64 667.80,532.73 670.48,531.82 673.15,530.89 675.82,529.97 678.50,529.03 681.17,528.10 683.85,527.15 686.52,526.20 689.20,525.25 691.88,524.29 694.55,523.32 697.23,522.35 699.90,521.37 702.58,520.39 705.25,519.40 707.93,518.40 710.60,517.40 713.27,516.39 715.95,515.38 718.62,514.36 721.30,513.34 723.98,512.31 726.65,511.28 729.33,510.24 732.00,509.19 734.68,508.14 737.35,507.08 740.03,506.01 742.70,504.94 745.38,503.86 748.05,502.78 750.73,501.69 753.40,500.60 756.08,499.50 758.75,498.39 761.42,497.28 764.10,496.16 766.77,495.03 769.45,493.90 772.12,492.76 774.80,491.62 777.47,490.47 780.15,489.31 782.82,488.15 785.50,486.98 788.17,485.81 790.85,484.63 793.52,483.44 796.20,482.25 798.88,481.05 801.55,479.84 804.23,478.63 806.90,477.41 809.57,476.18 812.25,474.95 814.92,473.71 817.60,472.47 820.27,471.21 822.95,469.96 825.62,468.69 828.30,467.42 830.98,466.14 833.65,464.86 836.33,463.57 839.00,462.27 841.68,460.96 844.35,459.65 847.02,458.34 849.70,457.01 852.38,455.68 855.05,454.34 857.73,453.00 860.40,451.64 863.08,450.29 865.75,448.92 868.43,447.55 871.10,446.17 873.78,444.78 876.45,443.39 879.12,441.99 881.80,440.58 884.48,439.17 887.15,437.75 889.83,436.32 892.50,434.89 895.17,433.45 897.85,432.00 900.52,430.54 903.20,429.08 905.88,427.61 908.55,426.13 911.22,424.64 913.90,423.15 916.57,421.65 919.25,420.15 921.92,418.63 924.60,417.11 927.27,415.59 929.95,414.05 932.62,412.51 935.30,410.96 937.98,409.40 940.65,407.83 943.32,406.26 946.00,404.68 948.67,403.10 951.35,401.50 954.02,399.90 956.70,398.29 959.38,396.67 962.05,395.05 964.73,393.42 967.40,391.78 970.08,390.13 972.75,388.47 975.43,386.81 978.10,385.14 980.77,383.46 983.45,381.77 986.12,380.08 988.80,378.38 991.48,376.67 994.15,374.95 996.83,373.23 999.50,371.50 1002.18,369.76 1004.85,368.01 1007.53,366.25 1010.20,364.49 1012.88,362.71 1015.55,360.93 1018.23,359.15 1020.90,357.35 1023.58,355.55 1026.25,353.73 1028.92,351.91 1031.60,350.09 1034.28,348.25 1036.95,346.40 1039.62,344.55 1042.30,342.69 1044.97,340.82 1047.65,338.95 1050.32,337.06 1053.00,335.17 1055.67,333.26 1058.35,331.35 1061.03,329.44 1063.70,327.51 1066.38,325.57 1069.05,323.63 1071.72,321.68 1074.40,319.72 1077.07,317.75 1079.75,315.77 1082.42,313.79 1085.10,311.79 1087.78,309.79 1090.45,307.78 1093.12,305.76 1095.80,303.73 1098.47,301.69 1101.15,299.65 1103.83,297.59 1106.50,295.53 1109.18,293.46 1111.85,291.38 1114.53,289.29 1117.20,287.19 1119.88,285.08 1122.55,282.97 1125.23,280.84 1127.90,278.71 1130.58,276.57 1133.25,274.42 1135.92,272.26 1138.60,270.09 1141.28,267.91 1143.95,265.73 1146.62,263.53 1149.30,261.33 1151.98,259.11 1154.65,256.89 1157.33,254.66 1160.00,252.42" />
<polyline fill="none" stroke="#B56576" stroke-width="2.5" points="90.00,632.64 92.67,632.53 95.35,632.42 98.03,632.31 100.70,632.20 103.38,632.08 106.05,631.97 108.72,631.85 111.40,631.73 114.08,631.61 116.75,631.49 119.42,631.37 122.10,631.25 124.78,631.13 127.45,631.00 130.12,630.88 132.80,630.75 135.47,630.62 138.15,630.49 140.82,630.36 143.50,630.23 146.18,630.09 148.85,629.96 151.53,629.82 154.20,629.69 156.88,629.55 159.55,629.41 162.23,629.27 164.90,629.12 167.57,628.98 170.25,628.83 172.93,628.69 175.60,628.54 178.28,628.39 180.95,628.24 183.62,628.09 186.30,627.94 188.97,627.78 191.65,627.62 194.32,627.47 197.00,627.31 199.68,627.15 202.35,626.99 205.02,626.82 207.70,626.66 210.38,626.49 213.05,626.33 215.72,626.16 218.40,625.99 221.07,625.81 223.75,625.64 226.43,625.47 229.10,625.29 231.78,625.11 234.45,624.93 237.12,624.75 239.80,624.57 242.47,624.39 245.15,624.20 247.82,624.02 250.50,623.83 253.17,623.64 255.85,623.45 258.52,623.25 261.20,623.06 263.88,622.86 266.55,622.67 269.23,622.47 271.90,622.27 274.57,622.06 277.25,621.86 279.92,621.65 282.60,621.45 285.27,621.24 287.95,621.03 290.62,620.81 293.30,620.60 295.98,620.39 298.65,620.17 301.33,619.95 304.00,619.73 306.68,619.51 309.35,619.28 312.02,619.06 314.70,618.83 317.38,618.60 320.05,618.37 322.73,618.14 325.40,617.90 328.08,617.67 330.75,617.43 333.43,617.19 336.10,616.95 338.77,616.71 341.45,616.46 344.12,616.21 346.80,615.97 349.47,615.72 352.15,615.46 354.82,615.21 357.50,614.95 360.18,614.70 362.85,614.44 365.53,614.18 368.20,613.91 370.88,613.65 373.55,613.38 376.23,613.11 378.90,612.84 381.58,612.57 384.25,612.29 386.93,612.02 389.60,611.74 392.27,611.46 394.95,611.18 397.62,610.89 400.30,610.61 402.97,610.32 405.65,610.03 408.32,609.74 411.00,609.44 413.68,609.15 416.35,608.85 419.02,608.55 421.70,608.25 424.38,607.94 427.05,607.64 429.73,607.33 432.40,607.02 435.07,606.71 437.75,606.39 440.43,606.08 443.10,605.76 445.78,605.44 448.45,605.11 451.12,604.79 453.80,604.46 456.48,604.13 459.15,603.80 461.82,603.47 464.50,603.13 467.17,602.80 469.85,602.46 472.52,602.12 475.20,601.77 477.88,601.43 480.55,601.08 483.22,600.73 485.90,600.37 488.57,600.02 491.25,599.66 493.93,599.30 496.60,598.94 499.28,598.58 501.95,598.21 504.62,597.84 507.30,597.47 509.98,597.10 512.65,596.72 515.33,596.35 518.00,595.97 520.67,595.59 523.35,595.20 526.02,594.81 528.70,594.43 531.38,594.03 534.05,593.64 536.72,593.24 539.40,592.85 542.08,592.45 544.75,592.04 547.42,591.64 550.10,591.23 552.77,590.82 555.45,590.41 558.12,589.99 560.80,589.57 563.48,589.15 566.15,588.73 568.83,588.31 571.50,587.88 574.17,587.45 576.85,587.02 579.53,586.58 582.20,586.14 584.88,585.71 587.55,585.26 590.23,584.82 592.90,584.37 595.58,583.92 598.25,583.47 600.92,583.01 603.60,582.56 606.27,582.10 608.95,581.63 611.62,581.17 614.30,580.70 616.98,580.23 619.65,579.76 622.33,579.28 625.00,578.80 627.67,578.32 630.35,577.84 633.02,577.35 635.70,576.86 638.38,576.37 641.05,575.88 643.72,575.38 646.40,574.88 649.07,574.38 651.75,573.88 654.42,573.37 657.10,572.86 659.77,572.35 662.45,571.83 665.12,571.31 667.80,570.79 670.48,570.27 673.15,569.74 675.82,569.21 678.50,568.68 681.17,568.14 683.85,567.60 686.52,567.06 689.20,566.52 691.88,565.97 694.55,565.42 697.23,564.87 699.90,564.32 702.58,563.76 705.25,563.20 707.93,562.64 710.60,562.07 713.27,561.50 715.95,560.93 718.62,560.35 721.30,559.77 723.98,559.19 726.65,558.61 729.33,558.02 732.00,557.43 734.68,556.84 737.35,556.24 740.03,555.65 742.70,555.04 745.38,554.44 748.05,553.83 750.73,553.22 753.40,552.61 756.08,551.99 758.75,551.37 761.42,550.75 764.10,550.12 766.77,549.49 769.45,548.86 772.12,548.23 774.80,547.59 777.47,546.95 780.15,546.30 782.82,545.65 785.50,545.00 788.17,544.35 790.85,543.69 793.52,543.03 796.20,542.37 798.88,541.70 801.55,541.03 804.23,540.36 806.90,539.68 809.57,539.01 812.25,538.32 814.92,537.64 817.60,536.95 820.27,536.26 822.95,535.56 825.62,534.86 828.30,534.16 830.98,533.46 833.65,532.75 836.33,532.04 839.00,531.32 841.68,530.60 844.35,529.88 847.02,529.16 849.70,528.43 852.38,527.70 855.05,526.96 857.73,526.22 860.40,525.48 863.08,524.74 865.75,523.99 868.43,523.24 871.10,522.48 873.78,521.72 876.45,520.96 879.12,520.19 881.80,519.43 884.48,518.65 887.15,517.88 889.83,517.10 892.50,516.32 895.17,515.53 897.85,514.74 900.52,513.95 903.20,513.15 905.88,512.35 908.55,511.55 911.22,510.74 913.90,509.93 916.57,509.11 919.25,508.29 921.92,507.47 924.60,506.65 927.27,505.82 929.95,504.99 932.62,504.15 935.30,503.31 937.98,502.47 940.65,501.62 943.32,500.77 946.00,499.92 948.67,499.06 951.35,498.20 954.02,497.33 956.70,496.46 959.38,495.59 962.05,494.72 964.73,493.84 967.40,492.95 970.08,492.06 972.75,491.17 975.43,490.28 978.10,489.38 980.77,488.48 983.45,487.57 986.12,486.66 988.80,485.75 991.48,484.83 994.15,483.91 996.83,482.98 999.50,482.05 1002.18,481.12 1004.85,480.19 1007.53,479.24 1010.20,478.30 1012.88,477.35 1015.55,476.40 1018.23,475.44 1020.90,474.48 1023.58,473.52 1026.25,472.55 1028.92,471.58 1031.60,470.60 1034.28,469.63 1036.95,468.64 1039.62,467.65 1042.30,466.66 1044.97,465.67 1047.65,464.67 1050.32,463.66 1053.00,462.66 1055.67,461.65 1058.35,460.63 1061.03,459.61 1063.70,458.59 1066.38,457.56 1069.05,456.53 1071.72,455.49 1074.40,454.45 1077.07,453.41 1079.75,452.36 1082.42,451.31 1085.10,450.25 1087.78,449.19 1090.45,448.13 1093.12,447.06 1095.80,445.98 1098.47,444.91 1101.15,443.83 1103.83,442.74 1106.50,441.65 1109.18,440.56 1111.85,439.46 1114.53,438.36 1117.20,437.25 1119.88,436.14 1122.55,435.02 1125.23,433.90 1127.90,432.78 1130.58,431.65 1133.25,430.52 1135.92,429.38 1138.60,428.24 1141.28,427.10 1143.95,425.95 1146.62,424.80 1149.30,423.64 1151.98,422.48 1154.65,421.31 1157.33,420.14 1160.00,418.96" />
<polyline fill="none" stroke="#7F5539" stroke-width="2.5" points="90.00,632.64 92.67,632.57 95.35,632.49 98.03,632.42 100.70,632.34 103.38,632.27 106.05,632.19 108.72,632.12 111.40,632.04 114.08,631.96 116.75,631.88 119.42,631.80 122.10,631.72 124.78,631.65 127.45,631.56 130.12,631.48 132.80,631.40 135.47,631.32 138.15,631.24 140.82,631.15 143.50,631.07 146.18,630.99 148.85,630.90 151.53,630.82 154.20,630.73 156.88,630.64 159.55,630.56 162.23,630.47 164.90,630.38 167.57,630.29 170.25,630.20 172.93,630.11 175.60,630.02 178.28,629.93 180.95,629.84 183.62,629.75 186.30,629.66 188.97,629.56 191.65,629.47 194.32,629.38 197.00,629.28 199.68,629.18 202.35,629.09 205.02,628.99 207.70,628.89 210.38,628.80 213.05,628.70 215.72,628.60 218.40,628.50 221.07,628.40 223.75,628.30 226.43,628.19 229.10,628.09 231.78,627.99 234.45,627.89 237.12,627.78 239.80,627.68 242.47,627.57 245.15,627.47 247.82,627.36 250.50,627.25 253.17,627.14 255.85,627.04 258.52,626.93 261.20,626.82 263.88,626.71 266.55,626.59 269.23,626.48 271.90,626.37 274.57,626.26 277.25,626.14 279.92,626.03 282.60,625.91 285.27,625.80 287.95,625.68 290.62,625.56 293.30,625.45 295.98,625.33 298.65,625.21 301.33,625.09 304.00,624.97 306.68,624.85 309.35,624.73 312.02,624.60 314.70,624.48 317.38,624.36 320.05,624.23 322.73,624.11 325.40,623.98 328.08,623.85 330.75,623.73 333.43,623.60 336.10,623.47 338.77,623.34 341.45,623.21 344.12,623.08 346.80,622.95 349.47,622.82 352.15,622.68 354.82,622.55 357.50,622.41 360.18,622.28 362.85,622.14 365.53,622.01 368.20,621.87 370.88,621.73 373.55,621.59 376.23,621.45 378.90,621.31 381.58,621.17 384.25,621.03 386.93,620.89 389.60,620.74 392.27,620.60 394.95,620.46 397.62,620.31 400.30,620.16 402.97,620.02 405.65,619.87 408.32,619.72 411.00,619.57 413.68,619.42 416.35,619.27 419.02,619.12 421.70,618.97 424.38,618.81 427.05,618.66 429.73,618.50 432.40,618.35 435.07,618.19 437.75,618.04 440.43,617.88 443.10,617.72 445.78,617.56 448.45,617.40 451.12,617.24 453.80,617.08 456.48,616.91 459.15,616.75 461.82,616.59 464.50,616.42 467.17,616.25 469.85,616.09 472.52,615.92 475.20,615.75 477.88,615.58 480.55,615.41 483.22,615.24 485.90,615.07 488.57,614.90 491.25,614.72 493.93,614.55 496.60,614.38 499.28,614.20 501.95,614.02 504.62,613.85 507.30,613.67 509.98,613.49 512.65,613.31 515.33,613.13 518.00,612.94 520.67,612.76 523.35,612.58 526.02,612.39 528.70,612.21 531.38,612.02 534.05,611.84 536.72,611.65 539.40,611.46 542.08,611.27 544.75,611.08 547.42,610.89 550.10,610.70 552.77,610.50 555.45,610.31 558.12,610.11 560.80,609.92 563.48,609.72 566.15,609.52 568.83,609.33 571.50,609.13 574.17,608.93 576.85,608.72 579.53,608.52 582.20,608.32 584.88,608.11 587.55,607.91 590.23,607.70 592.90,607.50 595.58,607.29 598.25,607.08 600.92,606.87 603.60,606.66 606.27,606.45 608.95,606.24 611.62,606.02 614.30,605.81 616.98,605.60 619.65,605.38 622.33,605.16 625.00,604.94 627.67,604.73 630.35,604.51 633.02,604.28 635.70,604.06 638.38,603.84 641.05,603.62 643.72,603.39 646.40,603.17 649.07,602.94 651.75,602.71 654.42,602.48 657.10,602.25 659.77,602.02 662.45,601.79 665.12,601.56 667.80,601.33 670.48,601.09 673.15,600.86 675.82,600.62 678.50,600.38 681.17,600.14 683.85,599.90 686.52,599.66 689.20,599.42 691.88,599.18 694.55,598.94 697.23,598.69 699.90,598.45 702.58,598.20 705.25,597.95 707.93,597.70 710.60,597.45 713.27,597.20 715.95,596.95 718.62,596.70 721.30,596.45 723.98,596.19 726.65,595.93 729.33,595.68 732.00,595.42 734.68,595.16 737.35,594.90 740.03,594.64 742.70,594.38 745.38,594.11 748.05,593.85 750.73,593.58 753.40,593.32 756.08,593.05 758.75,592.78 761.42,592.51 764.10,592.24 766.77,591.97 769.45,591.70 772.12,591.42 774.80,591.15 777.47,590.87 780.15,590.60 782.82,590.32 785.50,590.04 788.17,589.76 790.85,589.48 793.52,589.19 796.20,588.91 798.88,588.62 801.55,588.34 804.23,588.05 806.90,587.76 809.57,587.47 812.25,587.18 814.92,586.89 817.60,586.60 820.27,586.31 822.95,586.01 825.62,585.71 828.30,585.42 830.98,585.12 833.65,584.82 836.33,584.52 839.00,584.22 841.68,583.91 844.35,583.61 847.02,583.31 849.70,583.00 852.38,582.69 855.05,582.38 857.73,582.07 860.40,581.76 863.08,581.45 865.75,581.14 868.43,580.82 871.10,580.51 873.78,580.19 876.45,579.87 879.12,579.55 881.80,579.23 884.48,578.91 887.15,578.59 889.83,578.26 892.50,577.94 895.17,577.61 897.85,577.28 900.52,576.96 903.20,576.63 905.88,576.29 908.55,575.96 911.22,575.63 913.90,575.29 916.57,574.96 919.25,574.62 921.92,574.28 924.60,573.94 927.27,573.60 929.95,573.26 932.62,572.92 935.30,572.57 937.98,572.22 940.65,571.88 943.32,571.53 946.00,571.18 948.67,570.83 951.35,570.48 954.02,570.12 956.70,569.77 959.38,569.41 962.05,569.06 964.73,568.70 967.40,568.34 970.08,567.98 972.75,567.62 975.43,567.25 978.10,566.89 980.77,566.52 983.45,566.15 986.12,565.79 988.80,565.42 991.48,565.04 994.15,564.67 996.83,564.30 999.50,563.92 1002.18,563.55 1004.85,563.17 1007.53,562.79 1010.20,562.41 1012.88,562.03 1015.55,561.65 1018.23,561.26 1020.90,560.88 1023.58,560.49 1026.25,560.10 1028.92,559.71 1031.60,559.32 1034.28,558.93 1036.95,558.54 1039.62,558.14 1042.30,557.74 1044.97,557.35 1047.65,556.95 1050.32,556.55 1053.00,556.15 1055.67,555.74 1058.35,555.34 1061.03,554.93 1063.70,554.53 1066.38,554.12 1069.05,553.71 1071.72,553.30 1074.40,552.89 1077.07,552.47 1079.75,552.06 1082.42,551.64 1085.10,551.22 1087.78,550.80 1090.45,550.38 1093.12,549.96 1095.80,549.54 1098.47,549.11 1101.15,548.69 1103.83,548.26 1106.50,547.83 1109.18,547.40 1111.85,546.97 1114.53,546.54 1117.20,546.10 1119.88,545.67 1122.55,545.23 1125.23,544.79 1127.90,544.35 1130.58,543.91 1133.25,543.46 1135.92,543.02 1138.60,542.57 1141.28,542.13 1143.95,541.68 1146.62,541.23 1149.30,540.78 1151.98,540.32 1154.65,539.87 1157.33,539.41 1160.00,538.96" />
<text x="625.00" y="698" text-anchor="middle" font-size="16" fill="#102A43">Day post sea-transfer</text>
<text x="26" y="370.00" text-anchor="middle" font-size="16" fill="#102A43" transform="rotate(-90 26 370.00)">Weight (g)</text>
</svg>